# xmcd CD database file
#
# Track frame offsets:
#	150
#	16376
#	28955
#	45551
#	61739
#	77322
#	91639
#	106115
#	118911
#	132763
#
# Disc length: 1955 seconds
#
# Revision: 1
# Processed by: cddbd v1.5.2PL0 Copyright (c) Steve Scherf et al.
# Submitted via: CDex 1.79
#
DISCID=6e07a10a
DTITLE=Sammy Kershaw - Honky Tonk Boots
DYEAR=2006
DGENRE=Country
TTITLE0=Tennessee Girl
TTITLE1=Honky Tonk Boots
TTITLE2=One Step At A Time
TTITLE3=Evangeline
TTITLE4=Leavin' Made Easy
TTITLE5=Baby's Got Her Blue Jeans On
TTITLE6=High Society
TTITLE7=The Battle
TTITLE8=Mama's Got A Tattoo
TTITLE9=Cantaloupes On Mars
EXTD=YEAR: 2006
EXTT0=
EXTT1=
EXTT2=
EXTT3=
EXTT4=
EXTT5=
EXTT6=
EXTT7=
EXTT8=
EXTT9=
PLAYORDER=
